{"title":"Butthole Surfers - Electriclarryland - Custom Remaster by MC Lur","uid":7572371,"size":1257866043,"categoryP":"audio","categoryS":"flac","magnet":"?xt=urn:btih:e3f439af9ae8fb6ae18fea21437d3af5dcee787b&amp;dn=Butthole+Surfers+-+Electriclarryland+-+Custom+Remaster+by+MC+Lur&amp;tr=udp%3A%2F%2Ftracker.openbittorrent.com%3A80&amp;tr=udp%3A%2F%2Fopen.demonii.com%3A1337&amp;tr=udp%3A%2F%2Ftracker.coppersurfer.tk%3A6969&amp;tr=udp%3A%2F%2Fexodus.desync.com%3A6969","seeders":0,"leechers":0,"uploader":"beavis39","files":-1,"time":1346023284,"description":"Butthole Surfers - Electriclarryland - Custom Remaster by MC Lurken (a.k.a. Beavis39)\n\n\n\n!!!!!!!!!!This is a custom remaster intended to increase the dynamic range and is NOT an official remaster!!!!!!!!!!\n\n\n\n1 - Birds\n2 - Cough Syrup\n3 - Pepper\n4 - Thermador\n5 - Ulcer Breakout\n6 - Jingle Of A Dog's Collar\n7 - TV Star\n8 - My Brother's Wife\n9 - Ah Ha\n10 - The Lord Is A Monkey\n11 - Lets Talk About Cars\n12 - L.A.\n13 - Space\n\n\nSetup:\n-HP G72-250US\n-Intel Core i3 M350 2.27GHz\n-8Gb PC3-10700 RAM\n-Win7 64-bit SP1\n-SB X-Fi Surround 5.1\n\nProcess:\n-Original 16-bit/44.1kHz files joined in Wavelab 6\n-Remove DC offset and save as 64-bit float/44.1kHz\n-Resample to 384kHz in Wavelab w/crystal resampler ultra(slow) relax background priority\n-Create new 64-bit/384kHz master recording in Wavelab\n\nAs reported in Wavelab:\n-Original 16-bit/44.1kHz: Apparent Bit Resolution = 16, Peak = -0.2db\n-With DC Offset Removed: Apparent Bit Resolution = 21, Peak = -0.2db\n-64-bit/384kHz Recording: Apparent Bit Resolution = 41, Peak = 1.225db\n\n-Resample 64-bit/384kHz to 64-bit/96kHz in Wavelab w/crystal resampler ultra(slow) relax background priority\n-Apply MBIT+ Dither in Wavelab w/Izotope Ozone 5 VST Plugin\n\nMBIT+ Dither Settings:\n*Noise Shaping - Light\n*Bit Depth - 24\n*Dither Amount - Low\n*Auto-Blanking - On\n*Limit Peaks - Off\n*Harmonic Suppression - On\n\n-Flac encode level 0 with Trader's Little Helper\n-Tag and pic with xrecode II\n\n\nfoobar2000 1.1.13 / Dynamic Range Meter 1.1.1\nlog date: 2012-08-26 13:38:47\n\n--------------------------------------------------------------------------------\nAnalyzed: ? / ?\n--------------------------------------------------------------------------------\n\nDR         Peak         RMS     Duration Track\n--------------------------------------------------------------------------------\nDR7       -0.10 dB    -8.29 dB      3:10 ?-01 - Birds\nDR8       -0.18 dB    -8.87 dB      4:33 ?-02 - Cough Syrup\nDR7       -0.53 dB   -10.20 dB      4:57 ?-03 - Pepper\nDR6       -0.45 dB    -8.28 dB      4:36 ?-04 - Thermador\nDR6       -0.48 dB    -8.28 dB      2:35 ?-05 - Ulcer Breakout\nDR8       -0.53 dB   -10.87 dB      3:08 ?-06 - Jingle Of A Dog's Collar\nDR9       -0.83 dB   -11.21 dB      3:07 ?-07 - TV Star\nDR8       -0.66 dB   -11.42 dB      5:13 ?-08 - My Brother's Wife\nDR6       -0.77 dB    -9.12 dB      3:31 ?-09 - Ah Ha\nDR7       -0.36 dB    -9.61 dB      4:47 ?-10 - The Lord Is A Monkey\nDR12      -2.69 dB   -18.00 dB      4:34 ?-11 - Lets Talk About Cars\nDR7       -0.35 dB    -8.40 dB      2:47 ?-12 - L.A.\nDR8        0.00 dB   -12.91 dB      4:25 ?-13 - Space\n--------------------------------------------------------------------------------\n\nNumber of tracks:  13\nOfficial DR value: DR8\n\nSamplerate:        96000 Hz\nChannels:          2\nBits per sample:   24\nBitrate:           4608 kbps\nCodec:             PCM\n\n\n\nenjoy :)","torrent":{"xt":"urn:btih:e3f439af9ae8fb6ae18fea21437d3af5dcee787b","amp;dn":"Butthole+Surfers+-+Electriclarryland+-+Custom+Remaster+by+MC+Lur","amp;tr":["udp%3A%2F%2Ftracker.openbittorrent.com%3A80","udp%3A%2F%2Fopen.demonii.com%3A1337","udp%3A%2F%2Ftracker.coppersurfer.tk%3A6969","udp%3A%2F%2Fexodus.desync.com%3A6969"],"infoHash":"e3f439af9ae8fb6ae18fea21437d3af5dcee787b","infoHashBuffer":{"type":"Buffer","data":[227,244,57,175,154,232,251,106,225,143,234,33,67,125,58,245,220,238,120,123]},"announce":[],"urlList":[]}}